<svg width="24" height="24" viewBox="0 0 24 24" fill="none" xmlns="http://www.w3.org/2000/svg">
<path d="M17.956 3.228L20.641 12.728C20.6831 12.8768 20.69 13.0334 20.6614 13.1853C20.6327 13.3373 20.5692 13.4805 20.4758 13.6038C20.3825 13.7271 20.2618 13.827 20.1232 13.8958C19.9847 13.9645 19.8321 14.0002 19.6775 14H13.9375C13.5855 14 13.3255 14.327 13.4045 14.67L13.6545 15.752C13.8835 16.7445 13.957 17.767 13.8725 18.782L13.8265 19.3335C13.7772 19.9252 13.5198 20.4802 13.1 20.9C12.7159 21.2839 12.1951 21.4997 11.652 21.5H11.532C11.3708 21.4999 11.2127 21.4567 11.0738 21.3749C10.9349 21.2932 10.8204 21.1758 10.742 21.035L9.4125 18.6425C8.81646 17.5696 7.92799 16.6881 6.8505 16.1005L3.521 14.284C3.36345 14.198 3.23194 14.0712 3.14027 13.9169C3.0486 13.7626 3.00015 13.5865 3 13.407V3.5C3 3.23478 3.10536 2.98043 3.29289 2.79289C3.48043 2.60536 3.73478 2.5 4 2.5H16.9935C17.2112 2.50006 17.423 2.5712 17.5966 2.70259C17.7703 2.83399 17.8968 3.01847 17.956 3.228Z" fill="#0038A0" stroke="#0038A0" stroke-width="2" stroke-linecap="round" stroke-linejoin="round"/>
</svg>
