<svg width="20" height="20" viewBox="0 0 20 20" fill="none" xmlns="http://www.w3.org/2000/svg">
<path d="M10.0007 11.1663L5.91732 15.2497C5.76454 15.4025 5.5701 15.4788 5.33398 15.4788C5.09787 15.4788 4.90343 15.4025 4.75065 15.2497C4.59787 15.0969 4.52148 14.9025 4.52148 14.6663C4.52148 14.4302 4.59787 14.2358 4.75065 14.083L8.83398 9.99967L4.75065 5.91634C4.59787 5.76356 4.52148 5.56912 4.52148 5.33301C4.52148 5.0969 4.59787 4.90245 4.75065 4.74967C4.90343 4.5969 5.09787 4.52051 5.33398 4.52051C5.5701 4.52051 5.76454 4.5969 5.91732 4.74967L10.0007 8.83301L14.084 4.74967C14.2368 4.5969 14.4312 4.52051 14.6673 4.52051C14.9034 4.52051 15.0979 4.5969 15.2507 4.74967C15.4034 4.90245 15.4798 5.0969 15.4798 5.33301C15.4798 5.56912 15.4034 5.76356 15.2507 5.91634L11.1673 9.99967L15.2507 14.083C15.4034 14.2358 15.4798 14.4302 15.4798 14.6663C15.4798 14.9025 15.4034 15.0969 15.2507 15.2497C15.0979 15.4025 14.9034 15.4788 14.6673 15.4788C14.4312 15.4788 14.2368 15.4025 14.084 15.2497L10.0007 11.1663Z" fill="#6F727C"/>
</svg>
