<svg width="24" height="24" viewBox="0 0 24 24" fill="none" xmlns="http://www.w3.org/2000/svg">
<path d="M15.5105 12.4895C15.511 12.2559 15.4296 12.0294 15.2805 11.8495L10.2805 5.84953C10.1108 5.64532 9.86688 5.51689 9.60245 5.49251C9.33803 5.46813 9.07475 5.54979 8.87053 5.71953C8.66631 5.88927 8.53789 6.13318 8.51351 6.39761C8.48913 6.66204 8.57079 6.92532 8.74053 7.12953L13.2205 12.4895L8.90053 17.8495C8.81746 17.9518 8.75543 18.0695 8.718 18.1959C8.68057 18.3222 8.66848 18.4547 8.68241 18.5857C8.69635 18.7167 8.73605 18.8437 8.79922 18.9594C8.8624 19.075 8.9478 19.177 9.05053 19.2595C9.15335 19.3511 9.27398 19.4205 9.40485 19.4633C9.53573 19.5061 9.67403 19.5214 9.81109 19.5082C9.94815 19.4951 10.081 19.4538 10.2014 19.3869C10.3217 19.32 10.427 19.229 10.5105 19.1195L15.3405 13.1195C15.466 12.9344 15.5259 12.7126 15.5105 12.4895Z" fill="#6F727C"/>
</svg>
