<svg width="24" height="24" viewBox="0 0 24 24" fill="none" xmlns="http://www.w3.org/2000/svg">
<path d="M17.956 20.772L20.641 11.272C20.6831 11.1232 20.69 10.9666 20.6614 10.8147C20.6327 10.6627 20.5692 10.5195 20.4758 10.3962C20.3825 10.2729 20.2618 10.173 20.1232 10.1042C19.9847 10.0355 19.8321 9.99981 19.6775 10H13.9375C13.8552 10 13.774 9.98144 13.6999 9.94569C13.6258 9.90994 13.5607 9.85793 13.5094 9.79354C13.4582 9.72914 13.4222 9.65402 13.404 9.57376C13.3858 9.4935 13.386 9.41018 13.4045 9.33L13.6545 8.248C13.8835 7.2555 13.957 6.233 13.8725 5.218L13.8265 4.6665C13.7772 4.07485 13.5198 3.51981 13.1 3.1C12.7159 2.71609 12.1951 2.5003 11.652 2.5H11.532C11.2035 2.5 10.901 2.678 10.742 2.965L9.4125 5.3575C8.81653 6.43054 7.92806 7.31225 6.8505 7.9L3.521 9.715C3.36315 9.80114 3.23144 9.92824 3.13976 10.0829C3.04807 10.2376 2.99979 10.4142 3 10.594V20.5C3 20.7652 3.10536 21.0196 3.29289 21.2071C3.48043 21.3946 3.73478 21.5 4 21.5H16.9935C17.2112 21.4999 17.423 21.4288 17.5966 21.2974C17.7703 21.166 17.8968 20.9815 17.956 20.772Z" fill="#CC1F1F" stroke="#CC1F1F" stroke-width="2" stroke-linecap="round" stroke-linejoin="round"/>
</svg>
