<svg width="20" height="19" viewBox="0 0 20 20" fill="inherit" xmlns="http://www.w3.org/2000/svg">
<path fill-rule="evenodd" clip-rule="evenodd" d="M0 9C0 4.143 4.656 0.5 10 0.5C15.344 0.5 20 4.143 20 9C20 13.857 15.344 17.5 10 17.5C9.474 17.5 8.95867 17.4667 8.454 17.4L5.554 19.332C5.38945 19.4416 5.1961 19.5 4.99839 19.4997C4.80068 19.4995 4.60749 19.4406 4.44321 19.3306C4.27894 19.2206 4.15097 19.0643 4.07546 18.8816C3.99995 18.6989 3.98031 18.4979 4.019 18.304L4.464 16.083C1.828 14.59 0 12.017 0 9Z" fill="inherit"/>
</svg>
