<svg width="24" height="24" viewBox="0 0 24 24" fill="inherit" xmlns="http://www.w3.org/2000/svg">
<path d="M17.5598 21.0002C17.3998 21.0008 17.2421 20.9631 17.0998 20.8902L11.9998 18.2202L6.89976 20.8902C6.73416 20.9773 6.54744 21.0162 6.36084 21.0024C6.17424 20.9887 5.99524 20.9228 5.84419 20.8124C5.69314 20.702 5.5761 20.5514 5.50638 20.3778C5.43665 20.2041 5.41704 20.0144 5.44976 19.8302L6.44976 14.2002L2.32976 10.2002C2.20122 10.0719 2.11003 9.91107 2.06599 9.7349C2.02195 9.55872 2.02671 9.37388 2.07976 9.2002C2.13772 9.02248 2.24434 8.86456 2.38751 8.74436C2.53069 8.62417 2.70469 8.54651 2.88976 8.5202L8.58976 7.6902L11.0998 2.5602C11.1816 2.39113 11.3095 2.24855 11.4687 2.14878C11.6278 2.04901 11.8119 1.99609 11.9998 1.99609C12.1876 1.99609 12.3717 2.04901 12.5309 2.14878C12.69 2.24855 12.8179 2.39113 12.8998 2.5602L15.4398 7.6802L21.1398 8.5102C21.3248 8.53651 21.4988 8.61417 21.642 8.73436C21.7852 8.85456 21.8918 9.01248 21.9498 9.1902C22.0028 9.36388 22.0076 9.54872 21.9635 9.7249C21.9195 9.90107 21.8283 10.0619 21.6998 10.1902L17.5798 14.1902L18.5798 19.8202C18.6155 20.0077 18.5968 20.2015 18.5259 20.3787C18.455 20.5559 18.3349 20.7091 18.1798 20.8202C17.9987 20.9471 17.7806 21.0104 17.5598 21.0002ZM11.9998 16.1002C12.1602 16.0952 12.319 16.1332 12.4598 16.2102L16.2298 18.2102L15.5098 14.0002C15.4818 13.8395 15.4936 13.6743 15.5442 13.5192C15.5947 13.364 15.6825 13.2236 15.7998 13.1102L18.7998 10.1802L14.5998 9.5602C14.4457 9.5292 14.3012 9.46233 14.1778 9.36504C14.0545 9.26775 13.9558 9.14276 13.8898 9.0002L11.9998 5.2502L10.1098 9.0002C10.0374 9.14391 9.93145 9.26803 9.80089 9.36204C9.67032 9.45605 9.51899 9.51717 9.35976 9.5402L5.15976 10.1602L8.15976 13.0902C8.27704 13.2036 8.36478 13.344 8.41533 13.4992C8.46588 13.6543 8.4777 13.8195 8.44976 13.9802L7.72976 18.1402L11.4998 16.1402C11.6593 16.0798 11.8327 16.0659 11.9998 16.1002Z" fill="inherit"/>
</svg>
