<svg width="36" height="36" viewBox="0 0 36 36" fill="none" xmlns="http://www.w3.org/2000/svg">
<path d="M12 25.5C12.425 25.5 12.7815 25.356 13.0695 25.068C13.3575 24.78 13.501 24.424 13.5 24C13.499 23.576 13.355 23.22 13.068 22.932C12.781 22.644 12.425 22.5 12 22.5C11.575 22.5 11.219 22.644 10.932 22.932C10.645 23.22 10.501 23.576 10.5 24C10.499 24.424 10.643 24.7805 10.932 25.0695C11.221 25.3585 11.577 25.502 12 25.5ZM12 19.5C12.425 19.5 12.7815 19.356 13.0695 19.068C13.3575 18.78 13.501 18.424 13.5 18C13.499 17.576 13.355 17.22 13.068 16.932C12.781 16.644 12.425 16.5 12 16.5C11.575 16.5 11.219 16.644 10.932 16.932C10.645 17.22 10.501 17.576 10.5 18C10.499 18.424 10.643 18.7805 10.932 19.0695C11.221 19.3585 11.577 19.502 12 19.5ZM12 13.5C12.425 13.5 12.7815 13.356 13.0695 13.068C13.3575 12.78 13.501 12.424 13.5 12C13.499 11.576 13.355 11.22 13.068 10.932C12.781 10.644 12.425 10.5 12 10.5C11.575 10.5 11.219 10.644 10.932 10.932C10.645 11.22 10.501 11.576 10.5 12C10.499 12.424 10.643 12.7805 10.932 13.0695C11.221 13.3585 11.577 13.502 12 13.5ZM18 25.5H24C24.425 25.5 24.7815 25.356 25.0695 25.068C25.3575 24.78 25.501 24.424 25.5 24C25.499 23.576 25.355 23.22 25.068 22.932C24.781 22.644 24.425 22.5 24 22.5H18C17.575 22.5 17.219 22.644 16.932 22.932C16.645 23.22 16.501 23.576 16.5 24C16.499 24.424 16.643 24.7805 16.932 25.0695C17.221 25.3585 17.577 25.502 18 25.5ZM18 19.5H24C24.425 19.5 24.7815 19.356 25.0695 19.068C25.3575 18.78 25.501 18.424 25.5 18C25.499 17.576 25.355 17.22 25.068 16.932C24.781 16.644 24.425 16.5 24 16.5H18C17.575 16.5 17.219 16.644 16.932 16.932C16.645 17.22 16.501 17.576 16.5 18C16.499 18.424 16.643 18.7805 16.932 19.0695C17.221 19.3585 17.577 19.502 18 19.5ZM18 13.5H24C24.425 13.5 24.7815 13.356 25.0695 13.068C25.3575 12.78 25.501 12.424 25.5 12C25.499 11.576 25.355 11.22 25.068 10.932C24.781 10.644 24.425 10.5 24 10.5H18C17.575 10.5 17.219 10.644 16.932 10.932C16.645 11.22 16.501 11.576 16.5 12C16.499 12.424 16.643 12.7805 16.932 13.0695C17.221 13.3585 17.577 13.502 18 13.5ZM7.5 31.5C6.675 31.5 5.969 31.2065 5.382 30.6195C4.795 30.0325 4.501 29.326 4.5 28.5V7.5C4.5 6.675 4.794 5.969 5.382 5.382C5.97 4.795 6.676 4.501 7.5 4.5H28.5C29.325 4.5 30.0315 4.794 30.6195 5.382C31.2075 5.97 31.501 6.676 31.5 7.5V28.5C31.5 29.325 31.2065 30.0315 30.6195 30.6195C30.0325 31.2075 29.326 31.501 28.5 31.5H7.5Z" fill="#989AA2"/>
</svg>
