<svg width="120" height="36" viewBox="0 0 120 36" fill="none" xmlns="http://www.w3.org/2000/svg">
<g clip-path="url(#clip0_481_11014)">
<path d="M110.856 10.9067V28.2011H105.1V10.9067H98.0991V6.14722H117.856V10.9067H110.856Z" fill="#404249"/>
<path d="M95.3415 6.14722V28.2011H89.5859V6.14722H95.3415Z" fill="#404249"/>
<path d="M86.5713 14.5592V19.3187H75.6965V28.2011H69.9409V6.14722H87.097V10.9067H75.6965V14.5592H86.5713Z" fill="#404249"/>
<path d="M65.5811 11.9858C65.5811 12.982 65.3874 13.8951 65.0553 14.6976C64.6679 15.5277 64.0868 16.2472 63.312 16.8283C63.7548 17.022 64.1975 17.271 64.6126 17.5477C65 17.8521 65.332 18.2118 65.6641 18.6269C65.9408 19.0696 66.1898 19.5677 66.3835 20.1212C66.5496 20.7022 66.6326 21.3387 66.6326 22.0581C66.6326 23.165 66.4665 24.1058 66.1345 24.8806C65.8024 25.6554 65.332 26.2918 64.7786 26.7899C64.1698 27.288 63.5057 27.6477 62.7309 27.8691C61.9561 28.0904 61.126 28.2011 60.2405 28.2011H46.3496V6.14722H59.189C60.0745 6.14722 60.9046 6.2579 61.6794 6.42393C62.4542 6.6453 63.1183 6.97735 63.7271 7.42009C64.2805 7.8905 64.7509 8.49927 65.083 9.21872C65.415 9.96584 65.5811 10.879 65.5811 11.9858ZM60.7663 21.2003C60.7663 20.8406 60.6833 20.5086 60.5172 20.2042C60.3512 19.9275 60.1298 19.7061 59.8808 19.4847C59.6041 19.3187 59.2997 19.1527 58.9677 19.042C58.6356 18.9313 58.2759 18.8483 57.9438 18.7929H51.9669V23.6077H57.9438C58.7463 23.6077 59.4104 23.4417 59.9638 23.0543C60.4896 22.6946 60.7663 22.0858 60.7663 21.2003ZM58.0822 14.1995C58.6909 14.0612 59.1614 13.8121 59.4934 13.4247C59.7978 13.065 59.9638 12.6499 59.9638 12.2072C59.9638 11.7368 59.7701 11.3771 59.3827 11.128C58.9953 10.9067 58.5526 10.7683 58.0822 10.7683H51.9669V14.1995H58.0822Z" fill="#5B4AF4"/>
<path d="M18.9243 16.1164C18.9243 14.602 19.2042 13.1886 19.7894 11.8761C20.3492 10.5889 21.1126 9.47833 22.1304 8.51922C23.0973 7.61058 24.2677 6.87863 25.6417 6.34859C26.9903 5.8438 28.4661 5.56616 30.0691 5.56616C31.6721 5.56616 33.1479 5.8438 34.5219 6.34859C35.8705 6.87863 37.041 7.61058 38.0588 8.51922C39.0257 9.47833 39.8144 10.5889 40.3742 11.8761C40.9086 13.1886 41.1885 14.602 41.1885 16.1164C41.1885 17.6813 40.9086 19.0947 40.3742 20.3819C39.8144 21.6944 39.0257 22.8049 38.0588 23.7388C37.041 24.6727 35.8705 25.4046 34.5219 25.9347C33.1479 26.4395 31.6721 26.7171 30.0691 26.7171C28.4661 26.7171 26.9903 26.4395 25.6417 25.9347C24.2677 25.4046 23.0973 24.6727 22.1304 23.7388C21.1126 22.8049 20.3492 21.6944 19.7894 20.3819C19.2042 19.0947 18.9243 17.6813 18.9243 16.1164ZM24.2168 16.1164C24.2168 17.0503 24.344 17.8832 24.6494 18.6404C24.9038 19.4228 25.3109 20.079 25.8198 20.6343C26.3287 21.1896 26.9394 21.6187 27.6773 21.9215C28.3898 22.2497 29.1785 22.4011 30.0691 22.4011C30.9342 22.4011 31.7485 22.2497 32.4864 21.9215C33.1988 21.6187 33.8095 21.1896 34.3184 20.6343C34.8273 20.079 35.209 19.4228 35.5143 18.6404C35.7687 17.8832 35.9214 17.0503 35.9214 16.1164C35.9214 15.233 35.7687 14.4001 35.5143 13.6429C35.209 12.8857 34.8273 12.2295 34.3184 11.6742C33.8095 11.1189 33.1988 10.6898 32.4864 10.3617C31.7485 10.0588 30.9342 9.90741 30.0691 9.90741C29.1785 9.90741 28.3898 10.0588 27.6773 10.3617C26.9394 10.6898 26.3287 11.1189 25.8198 11.6742C25.3109 12.2295 24.9038 12.8857 24.6494 13.6429C24.344 14.4001 24.2168 15.233 24.2168 16.1164Z" fill="#5B4AF4"/>
<path d="M2.96081 22.0581C3.43122 22.6116 3.98465 23.0543 4.59341 23.3864C5.17451 23.7461 5.83861 23.9121 6.61341 23.9121C7.11149 23.9121 7.55423 23.8291 7.96929 23.6354C8.35669 23.4694 8.66107 23.2203 8.93779 22.8883C9.18683 22.5839 9.38052 22.2242 9.54655 21.7814C9.65724 21.394 9.74025 20.9513 9.74025 20.4532V6.14722H15.4959V20.1488C15.4959 21.477 15.2745 22.6669 14.8871 23.7184C14.472 24.7976 13.8909 25.7107 13.1438 26.4855C12.369 27.2326 11.4282 27.8137 10.349 28.2288C9.24217 28.6162 7.99697 28.7822 6.61341 28.7546C5.39588 28.6992 4.23369 28.4502 3.12684 28.0351C2.01999 27.5924 0.968491 26.9283 0 26.0428L2.96081 22.0581Z" fill="#5B4AF4"/>
<path d="M36.1792 22.8208L40.632 27.2736" stroke="#5B4AF4" stroke-width="2.22642"/>
<path d="M38.9624 25.6039L42.302 28.9435" stroke="#5B4AF4" stroke-width="4.45283"/>
</g>
<defs>
<clipPath id="clip0_481_11014">
<rect width="120" height="36" fill="white"/>
</clipPath>
</defs>
</svg>
